<svg width="40" height="40" viewBox="0 0 40 40" fill="none" xmlns="http://www.w3.org/2000/svg">
<path class="fill" d="M20 2C10.059 2 2 10.059 2 20C2 29.941 10.059 38 20 38C29.941 38 38 29.941 38 20C38 10.059 29.941 2 20 2ZM14 29H9.5V15H14V29ZM11.75 13.5H11.725C10.2 13.5 9.2 12.42 9.2 11.075C9.2 9.707 10.225 8.65 11.775 8.65C13.325 8.65 14.3 9.707 14.325 11.075C14.325 12.42 13.325 13.5 11.75 13.5ZM31 29H26.5V21.675C26.5 19.875 25.875 18.65 24.3 18.65C23.075 18.65 22.35 19.475 22.025 20.275C21.9 20.567 21.875 20.975 21.875 21.387V29H17.375V15H21.875V16.925C22.475 16.025 23.55 14.75 25.85 14.75C28.75 14.75 31 16.65 31 21.225V29Z" fill="white"/>
</svg>
